<?xml version="1.0" encoding="utf-8"?>
<!-- Generator: Adobe Illustrator 22.0.1, SVG Export Plug-In . SVG Version: 6.00 Build 0)  -->
<svg version="1.1" xmlns="http://www.w3.org/2000/svg" xmlns:xlink="http://www.w3.org/1999/xlink" x="0px" y="0px"
	 viewBox="0 0 800 800" style="enable-background:new 0 0 800 800;" xml:space="preserve">

<g id="feature_launch">
	<path style="fill:#E4F1F8;" d="M607.4,728c-8.9,3.2-57.8,17.2-155,17.2c-97.2,0-168.3-11.6-176-17.2c-30.4-22.2,50-55.1,61.7-63.9
		c19.2-14.4,29.3-39.9,37.2-62.1c1-2.8,10.8-45.6,11.9-45.7c0,0,123.1-0.3,123.2-0.3c-2.7,0.2,11.3,58.1,12.8,62.4
		c17.5,52,39,58.2,89.8,74.7C643.4,703,629.8,720.1,607.4,728z"/>
	<path style="fill:#FFFFFF;" d="M290,431.7V297.6c0,0,25.7-114.7,56.6-1.4l1.3,76"/>
	<path style="fill:#FFFFFF;" d="M584.4,428.9V294.8c0,0-25.7-114.7-56.6-1.4l-1.3,76"/>
	<path style="fill:#E4F1F8;" d="M533.9,479.4c0,0,0,54.8,0,54.8c0,6-4.9,11-11,11H362.8c-6,0-11-4.9-11-11v-54.8
		c0,0,0-258.1,0-258.8c0-34.1,34.1-88.9,64.8-105.9c27.5-15.2,53.1,0.2,71.1,22c22.3,27,39.2,54.7,39.8,90.2
		c0.3,21.8,1.1,43.7,1.7,65.5c1.4,55.3,2.8,110.6,4.3,165.9C533.6,465.3,533.9,472.4,533.9,479.4z"/>
	<path style="fill:#E4F1F8;" d="M350.7,300.3c-30.9-113.3-56.6,1.4-56.6,1.4"/>
	<path style="fill:#E4F1F8;" d="M589,298.9c-30.9-113.3-56.6,1.4-56.6,1.4"/>
	<path style="fill:#E4F1F8;" d="M522.3,369c20.3,31.6,48.8,55.4,72.9,83.7c21.6,25.3,25.4,62.2,20.2,94.4h-95.9"/>
	<path style="fill:#E4F1F8;" d="M351.6,369c-19.9,30.9-48.3,54.8-72.9,83.7C257,478,253.2,514.9,258.5,547h95.9"/>
	<path style="fill:none;stroke:#000000;stroke-width:4;stroke-miterlimit:10;" d="M288.6,433V298.9c0,0,25.7-114.7,56.6-1.4l1.3,76"
		/>
	<path style="fill:#FFFFFF;stroke:#000000;stroke-width:4;stroke-miterlimit:10;" d="M528.9,542.7v10.8c0,1.2-4.9,2.2-11,2.2H357.8
		c-6,0-11-1-11-2.2v-10.8"/>
	<path style="fill:none;stroke:#000000;stroke-width:4;stroke-miterlimit:10;" d="M528.9,479.9c0,0,0,54.8,0,54.8c0,6-4.9,11-11,11
		H357.8c-6,0-11-4.9-11-11v-54.8c0,0,0-258.1,0-258.8c0-34.1,34.1-88.9,64.8-105.9c27.5-15.2,53.1,0.2,71.1,22
		c22.3,27,39.2,54.7,39.8,90.2c0.3,21.8,1.1,43.7,1.7,65.5c1.4,55.3,2.8,110.6,4.3,165.9C528.6,465.8,528.9,472.8,528.9,479.9z"/>
	<path style="fill:none;stroke:#000000;stroke-width:4;stroke-miterlimit:10;" d="M344.7,367.6c-19.9,30.9-48.3,54.8-72.9,83.7
		c-21.6,25.3-25.4,62.2-20.2,94.4h95.9"/>
	<path style="fill:none;stroke:#000000;stroke-width:4;stroke-miterlimit:10;" d="M584.8,432.6V296.6c0,0-25.7-114.7-56.6-1.4
		l-1.3,81.5"/>
	<path style="fill:none;stroke:#000000;stroke-width:4;stroke-miterlimit:10;" d="M527.8,366.2c20.3,31.6,48.8,55.4,72.9,83.7
		c21.6,25.3,25.4,62.2,20.2,94.4H525"/>
	<path style="fill:#E4F1F8;" d="M478,244.1c0-20.3-18.1-36.7-40.4-36.7s-40.4,16.4-40.4,36.7H478z"/>
	<path style="fill:none;stroke:#000000;stroke-width:4;stroke-miterlimit:10;" d="M475.3,238.6c0-20.3-18.1-36.7-40.4-36.7
		s-40.4,16.4-40.4,36.7H475.3z"/>
	<line style="fill:none;stroke:#000000;stroke-width:4;stroke-miterlimit:10;" x1="288.6" y1="303.2" x2="344.7" y2="303.2"/>
	<line style="fill:none;stroke:#000000;stroke-width:4;stroke-miterlimit:10;" x1="530.5" y1="303.2" x2="587.1" y2="303.2"/>
	<path style="fill:none;stroke:#000000;stroke-width:4;stroke-miterlimit:10;" d="M613.8,743.5c0,9.5-78.8,17.2-176,17.2
		s-176-7.7-176-17.2"/>
	<path style="fill:none;stroke:#000000;stroke-width:4;stroke-miterlimit:10;" d="M372.8,557.3c0,0-23,116.6-78.4,119.2"/>
	<path style="fill:none;stroke:#000000;stroke-width:4;stroke-miterlimit:10;" d="M495,565.2c0,0,8.5,118.5,63.2,127.9"/>
	<path style="fill:#E4F1F8;" d="M572.5,130.3c6.8-2.9,12.3-60.2,24.6,2.7c0,0,52,14.1-4.1,30.6c0,0-13.7,57.1-23.3,0.9
		C569.8,164.5,519.1,153.6,572.5,130.3z"/>
	<path style="fill:#E4F1F8;" d="M119.3,213.8c6.8-2.9,12.3-60.2,24.6,2.7c0,0,52,14.1-4.1,30.6c0,0-13.7,57.1-23.3,0.9
		C116.5,248,65.9,237.1,119.3,213.8z"/>
</g>


</svg>
