<?xml version="1.0" encoding="utf-8"?>
<!-- Generator: Adobe Illustrator 22.0.1, SVG Export Plug-In . SVG Version: 6.00 Build 0)  -->
<svg version="1.1" xmlns="http://www.w3.org/2000/svg" xmlns:xlink="http://www.w3.org/1999/xlink" x="0px" y="0px"
	 viewBox="0 0 800 800" style="enable-background:new 0 0 800 800;" xml:space="preserve">

<g id="feature_share" >
	<circle style="display:inline;fill:#E4F1F8;" cx="445.7" cy="248.2" r="25.5"/>
	<path style="display:inline;fill:#E4F1F8;" d="M411.2,306.3c3.4-20.4,22.7-34.2,43.2-30.8c20.4,3.4,34.2,22.7,30.8,43.2"/>
	
		<circle style="display:inline;fill:none;stroke:#000000;stroke-width:4;stroke-linecap:round;stroke-linejoin:round;stroke-miterlimit:10;" cx="455.6" cy="247" r="25.5"/>
	
		<path style="display:inline;fill:none;stroke:#000000;stroke-width:4;stroke-linecap:round;stroke-linejoin:round;stroke-miterlimit:10;" d="
		M421.1,305.1c3.4-20.4,22.7-34.2,43.2-30.8c20.4,3.4,34.2,22.7,30.8,43.2"/>
	<circle style="display:inline;fill:#E4F1F8;" cx="612.2" cy="275.2" r="25.5"/>
	<path style="display:inline;fill:#E4F1F8;" d="M577.7,333.3c3.4-20.4,22.7-34.2,43.2-30.8c20.4,3.4,34.2,22.7,30.8,43.2"/>
	
		<circle style="display:inline;fill:none;stroke:#000000;stroke-width:4;stroke-linecap:round;stroke-linejoin:round;stroke-miterlimit:10;" cx="622.1" cy="274" r="25.5"/>
	
		<path style="display:inline;fill:none;stroke:#000000;stroke-width:4;stroke-linecap:round;stroke-linejoin:round;stroke-miterlimit:10;" d="
		M587.6,332.1c3.4-20.4,22.7-34.2,43.2-30.8c20.4,3.4,34.2,22.7,30.8,43.2"/>
	
		<line style="display:inline;fill:none;stroke:#000000;stroke-width:4;stroke-linecap:round;stroke-linejoin:round;stroke-miterlimit:10;" x1="146.5" y1="144.4" x2="166.8" y2="178.6"/>
	
		<line style="display:inline;fill:none;stroke:#000000;stroke-width:4;stroke-linecap:round;stroke-linejoin:round;stroke-miterlimit:10;" x1="121.5" y1="167.3" x2="157.9" y2="192.2"/>
	
		<line style="display:inline;fill:none;stroke:#000000;stroke-width:4;stroke-linecap:round;stroke-linejoin:round;stroke-miterlimit:10;" x1="172.5" y1="125.4" x2="180.8" y2="177.5"/>
	
		<line style="display:inline;fill:none;stroke:#000000;stroke-width:4;stroke-linecap:round;stroke-linejoin:round;stroke-miterlimit:10;" x1="675.5" y1="697.4" x2="641.3" y2="677.1"/>
	
		<line style="display:inline;fill:none;stroke:#000000;stroke-width:4;stroke-linecap:round;stroke-linejoin:round;stroke-miterlimit:10;" x1="652.6" y1="722.4" x2="627.7" y2="686"/>
	
		<line style="display:inline;fill:none;stroke:#000000;stroke-width:4;stroke-linecap:round;stroke-linejoin:round;stroke-miterlimit:10;" x1="694.5" y1="671.4" x2="642.4" y2="663.1"/>
	<circle style="display:inline;fill:#E4F1F8;" cx="532.2" cy="261" r="25.5"/>
	<path style="display:inline;fill:#E4F1F8;" d="M494.9,317.4c4.4-20.2,24.4-33.1,44.6-28.7c20.2,4.4,33.1,24.4,28.7,44.6"/>
	
		<circle style="display:inline;fill:none;stroke:#000000;stroke-width:4;stroke-linecap:round;stroke-linejoin:round;stroke-miterlimit:10;" cx="542.2" cy="260.3" r="25.5"/>
	
		<path style="display:inline;fill:none;stroke:#000000;stroke-width:4;stroke-linecap:round;stroke-linejoin:round;stroke-miterlimit:10;" d="
		M504.9,316.7c4.4-20.2,24.4-33.1,44.6-28.7c20.2,4.4,33.1,24.4,28.7,44.6"/>
	<path style="display:inline;fill:#E4F1F8;" d="M612.3,658.7l-478.7-85.3c-9.4-1.7-15.7-10.5-14.1-19.6L180,214.3
		c1.6-9.1,10.6-15.2,20-13.5l150.3,26.8l62.4,82.1L665.2,353c9.4,1.7,15.7,10.5,14.1,19.6l-47,272.5
		C630.6,654.3,621.6,660.3,612.3,658.7z"/>
	
		<path style="display:inline;fill:none;stroke:#000000;stroke-width:4;stroke-linecap:round;stroke-linejoin:round;stroke-miterlimit:10;" d="
		M604.2,652.7l-478.7-85.3c-9.4-1.7-15.7-10.5-14.1-19.6l60.5-339.6c1.6-9.1,10.6-15.2,20-13.5l150.3,26.8l62.4,82.1L657.2,347
		c9.4,1.7,15.7,10.5,14.1,19.6l-47,272.5C622.6,648.3,613.6,654.4,604.2,652.7z"/>
</g>
</svg>
