<?xml version="1.0" encoding="utf-8"?>
<!-- Generator: Adobe Illustrator 22.0.1, SVG Export Plug-In . SVG Version: 6.00 Build 0)  -->
<svg version="1.1" xmlns="http://www.w3.org/2000/svg" xmlns:xlink="http://www.w3.org/1999/xlink" x="0px" y="0px"
	 viewBox="0 0 800 800" style="enable-background:new 0 0 800 800;" xml:space="preserve">

<g id="feature_analyze" >
	<path style="display:inline;fill:#FFFFFF;" d="M582.2,632.6l-339,0.7c-11.8,0-21.4-9.6-21.5-21.4l-1-470.3
		c0-11.8,9.6-21.4,21.4-21.5l339-0.7c11.8,0,21.4,9.6,21.5,21.4l1,470.3C603.6,622.9,594,632.6,582.2,632.6z"/>
	<path style="display:inline;fill:none;stroke:#000000;stroke-width:4;stroke-miterlimit:10;" d="M572.5,627.1l-339,0.7
		c-11.8,0-21.4-9.6-21.5-21.4l-1-470.3c0-11.8,9.6-21.4,21.4-21.5l339-0.7c11.8,0,21.4,9.6,21.5,21.4l1,470.3
		C593.9,617.4,584.3,627.1,572.5,627.1z"/>
	<path style="display:inline;fill:#FFFFFF;" d="M544.9,656.5l-339,0.7c-11.8,0-21.4-9.6-21.5-21.4l-1-470.3
		c0-11.8,9.6-21.4,21.4-21.5l339-0.7c11.8,0,21.4,9.6,21.5,21.4l1,470.3C566.3,646.8,556.7,656.4,544.9,656.5z"/>
	<path style="display:inline;fill:none;stroke:#000000;stroke-width:4;stroke-miterlimit:10;" d="M535.3,650.9l-339,0.7
		c-11.8,0-21.4-9.6-21.5-21.4l-1-470.3c0-11.8,9.6-21.4,21.4-21.5l339-0.7c11.8,0,21.4,9.6,21.5,21.4l1,470.3
		C556.6,641.3,547,650.9,535.3,650.9z"/>
	
		<line style="display:inline;fill:none;stroke:#000000;stroke-width:4;stroke-miterlimit:10;" x1="274.4" y1="227.8" x2="499.3" y2="225.8"/>
	
		<ellipse transform="matrix(0.9923 -0.1241 0.1241 0.9923 -26.5394 30.4668)" style="display:inline;fill:none;stroke:#000000;stroke-width:4;stroke-miterlimit:10;" cx="231.4" cy="228.3" rx="20.1" ry="20.7"/>
	
		<line style="display:inline;fill:none;stroke:#000000;stroke-width:4;stroke-miterlimit:10;" x1="280.2" y1="499.8" x2="505.1" y2="497.9"/>
	
		<ellipse transform="matrix(0.9923 -0.1241 0.1241 0.9923 -60.2041 32.4219)" style="display:inline;fill:none;stroke:#000000;stroke-width:4;stroke-miterlimit:10;" cx="230.2" cy="499.6" rx="20.1" ry="20.7"/>
	
		<line style="display:inline;fill:none;stroke:#000000;stroke-width:4;stroke-miterlimit:10;" x1="275.6" y1="283.7" x2="500.5" y2="281.7"/>
	
		<ellipse transform="matrix(0.9923 -0.1241 0.1241 0.9923 -33.4373 30.8674)" style="display:inline;fill:none;stroke:#000000;stroke-width:4;stroke-miterlimit:10;" cx="231.1" cy="283.9" rx="20.1" ry="20.7"/>
	
		<line style="display:inline;fill:none;stroke:#000000;stroke-width:4;stroke-miterlimit:10;" x1="277.3" y1="366.3" x2="502.3" y2="364.3"/>
	
		<ellipse transform="matrix(0.9923 -0.1241 0.1241 0.9923 -43.1206 31.4298)" style="display:inline;fill:none;stroke:#000000;stroke-width:4;stroke-miterlimit:10;" cx="230.8" cy="362" rx="20.1" ry="20.7"/>
	
		<line style="display:inline;fill:none;stroke:#000000;stroke-width:4;stroke-miterlimit:10;" x1="278.5" y1="420.8" x2="503.4" y2="418.8"/>
	
		<ellipse transform="matrix(0.9923 -0.1241 0.1241 0.9923 -49.8446 31.8203)" style="display:inline;fill:none;stroke:#000000;stroke-width:4;stroke-miterlimit:10;" cx="230.6" cy="416.2" rx="20.1" ry="20.7"/>
	
		<polyline style="display:inline;fill:none;stroke:#69CE51;stroke-width:4;stroke-linecap:round;stroke-linejoin:round;stroke-miterlimit:10;" points="
		221.3,358.5 231.9,374.8 261.3,340.1 	"/>
	
		<ellipse transform="matrix(0.3549 -0.9349 0.9349 0.3549 -174.4888 737.1846)" style="display:inline;fill:#0E2C45;" cx="447" cy="495" rx="88" ry="89.1"/>
	<path style="display:inline;fill:#0E2C45;" d="M400.5,633.2l20.2-53.3c0.6-1.6-1.3-3.8-4.1-4.9c-2.9-1.1-5.7-0.7-6.3,0.9L390,629.3
		c-4.7-0.5-8.7,0.7-9.7,3.5l-38.7,102c-1.5,3.8,3,9.1,9.9,11.7c6.9,2.6,13.7,1.6,15.2-2.2l38.7-102
		C406.4,639.5,404.4,636,400.5,633.2z"/>
	
		<ellipse transform="matrix(0.3549 -0.9349 0.9349 0.3549 -178.1688 727.378)" style="display:inline;fill:#FFFFFF;" cx="438" cy="492.8" rx="73.8" ry="74.7"/>
	
		<ellipse transform="matrix(0.3549 -0.9349 0.9349 0.3549 -170.5771 732.4903)" style="display:inline;fill:#E4F1F8;" cx="445.5" cy="489.9" rx="73.8" ry="74.7"/>
	
		<ellipse transform="matrix(0.3549 -0.9349 0.9349 0.3549 -175.2833 731.56)" style="display:inline;fill:none;stroke:#000000;stroke-width:4;stroke-miterlimit:10;" cx="442.5" cy="492.8" rx="73.8" ry="74.7"/>
	
		<ellipse transform="matrix(0.3549 -0.9349 0.9349 0.3549 -175.2833 731.56)" style="display:inline;fill:none;stroke:#000000;stroke-width:4;stroke-miterlimit:10;" cx="442.5" cy="492.8" rx="88" ry="89.1"/>
	<path style="display:inline;fill:none;stroke:#000000;stroke-width:4;stroke-miterlimit:10;" d="M395.2,633.1l20.2-53.3
		c0.6-1.6-1.3-3.8-4.1-4.9c-2.9-1.1-5.7-0.7-6.3,0.9l-20.2,53.3c-4.7-0.5-8.7,0.7-9.7,3.5l-38.7,102c-1.5,3.8,3,9.1,9.9,11.7
		c6.9,2.6,13.7,1.6,15.2-2.2l38.7-102C401.2,639.4,399.1,635.8,395.2,633.1z"/>
	<path style="display:inline;fill:#FFFFFF;" d="M502.3,475.7c14.4,88-64.9,82.5-80.3,76.1C422,551.7,492.2,414.6,502.3,475.7z"/>
</g>

</svg>
